<?xml version="1.0" encoding="iso-8859-1"?>
<!-- Generator: Adobe Illustrator 16.0.0, SVG Export Plug-In . SVG Version: 6.00 Build 0)  -->
<!DOCTYPE svg PUBLIC "-//W3C//DTD SVG 1.1//EN" "http://www.w3.org/Graphics/SVG/1.1/DTD/svg11.dtd">
<svg version="1.1" id="Capa_1" xmlns="http://www.w3.org/2000/svg" xmlns:xlink="http://www.w3.org/1999/xlink" x="0px" y="0px"
	 width="612px" height="612px" viewBox="0 0 612 612" style="enable-background:new 0 0 612 612;" xml:space="preserve">
<g>
	<g id="_x32__27_">
		<g>
			<path d="M589.993,49.109C600.299,38.804,612,29.741,612,19.187s-8.565-19.12-19.119-19.12H401.685c-2.313,0-19.12,0-19.12,19.12
				v191.196c0,10.554,8.565,19.12,19.12,19.12c10.554,0,17.934-10,26.079-18.164l53.133-53.134
				c33.842,39.903,54.453,91.373,54.453,147.814c0,126.706-102.729,229.437-229.436,229.437S76.479,432.726,76.479,306.02
				c0-113.647,82.73-207.754,191.196-225.994V2.744C116.821,21.615,0,150.042,0,306.02c0,168.96,136.954,305.913,305.914,305.913
				S611.828,474.979,611.828,306.02c0-77.568-28.985-148.272-76.612-202.133L589.993,49.109z"/>
		</g>
	</g>
</g>
<g>
</g>
<g>
</g>
<g>
</g>
<g>
</g>
<g>
</g>
<g>
</g>
<g>
</g>
<g>
</g>
<g>
</g>
<g>
</g>
<g>
</g>
<g>
</g>
<g>
</g>
<g>
</g>
<g>
</g>
</svg>
