<?xml version="1.0" encoding="iso-8859-1"?>
<!-- Generator: Adobe Illustrator 16.0.0, SVG Export Plug-In . SVG Version: 6.00 Build 0)  -->
<!DOCTYPE svg PUBLIC "-//W3C//DTD SVG 1.1//EN" "http://www.w3.org/Graphics/SVG/1.1/DTD/svg11.dtd">
<svg version="1.1" id="Capa_1" xmlns="http://www.w3.org/2000/svg" xmlns:xlink="http://www.w3.org/1999/xlink" x="0px" y="0px"
	 width="659.076px" height="659.076px" viewBox="0 0 659.076 659.076" style="enable-background:new 0 0 659.076 659.076;"
	 xml:space="preserve">
<g>
	<g id="_x36__32_">
		<g>
			<path d="M612,386.549V47.077C612,21.067,590.933,0,564.923,0s-47.077,21.067-47.077,47.077v339.472
				c14.429-6.309,30.317-9.934,47.077-9.934C581.682,376.615,597.57,380.24,612,386.549z M141.23,292.395V47.077
				C141.23,21.067,120.164,0,94.153,0c-26.01,0-47.077,21.067-47.077,47.077v245.318c14.429-6.309,30.317-9.934,47.077-9.934
				C110.913,282.461,126.801,286.086,141.23,292.395z M47.077,507.912V612c0,25.986,21.067,47.076,47.077,47.076
				c26.01,0,47.077-21.066,47.077-47.076V507.912c-14.429,6.309-30.317,9.934-47.077,9.934
				C77.394,517.846,61.506,514.221,47.077,507.912z M376.615,57.01v-9.933C376.615,21.067,355.548,0,329.538,0
				s-47.077,21.067-47.077,47.077v9.933c14.429-6.308,30.318-9.933,47.077-9.933C346.298,47.077,362.186,50.702,376.615,57.01z
				 M329.538,94.154c-39.003,0-70.615,31.612-70.615,70.616c0,39.003,31.612,70.615,70.615,70.615
				c39.003,0,70.615-31.612,70.615-70.615C400.153,125.766,368.541,94.154,329.538,94.154z M94.153,329.539
				c-39.003,0-70.615,31.611-70.615,70.615c0,39.002,31.612,70.615,70.615,70.615c39.003,0,70.616-31.613,70.616-70.615
				C164.769,361.15,133.157,329.539,94.153,329.539z M517.846,602.066V612c0,25.986,21.067,47.076,47.077,47.076S612,638.01,612,612
				v-9.934c-14.43,6.309-30.318,9.934-47.077,9.934C548.163,612,532.274,608.375,517.846,602.066z M564.923,423.693
				c-39.003,0-70.615,31.611-70.615,70.615c0,39.002,31.612,70.615,70.615,70.615s70.615-31.613,70.615-70.615
				C635.538,455.305,603.926,423.693,564.923,423.693z M282.461,272.528V612c0,25.986,21.067,47.076,47.077,47.076
				S376.615,638.01,376.615,612V272.528c-14.43,6.309-30.317,9.933-47.077,9.933C312.779,282.461,296.89,278.837,282.461,272.528z"
				/>
		</g>
	</g>
</g>
<g>
</g>
<g>
</g>
<g>
</g>
<g>
</g>
<g>
</g>
<g>
</g>
<g>
</g>
<g>
</g>
<g>
</g>
<g>
</g>
<g>
</g>
<g>
</g>
<g>
</g>
<g>
</g>
<g>
</g>
</svg>
