<?xml version="1.0" encoding="iso-8859-1"?>
<!-- Generator: Adobe Illustrator 16.0.0, SVG Export Plug-In . SVG Version: 6.00 Build 0)  -->
<!DOCTYPE svg PUBLIC "-//W3C//DTD SVG 1.1//EN" "http://www.w3.org/Graphics/SVG/1.1/DTD/svg11.dtd">
<svg version="1.1" id="Capa_1" xmlns="http://www.w3.org/2000/svg" xmlns:xlink="http://www.w3.org/1999/xlink" x="0px" y="0px"
	 width="612px" height="612px" viewBox="0 0 612 612" style="enable-background:new 0 0 612 612;" xml:space="preserve">
<g>
	<g id="_x31_0_10_">
		<g>
			<path d="M571.2,367.235c-22.542,0-40.8,18.258-40.8,40.8v81.6H81.6v-81.6c0-22.542-18.258-40.8-40.8-40.8S0,385.493,0,408.035
				v142.8c0,9.792,10.608,20.4,20.4,20.4h571.2c12.322,0,20.4-9.344,20.4-20.4v-142.8C612,385.493,593.742,367.235,571.2,367.235z
				 M224.4,204.035h40.8v183.6c0,22.542,18.258,40.8,40.8,40.8c22.521,0,40.8-18.258,40.8-40.8v-183.6h40.8
				c14.383,0,27.051,1.917,35.048-6.12c7.996-8.038,7.996-21.053,0-29.09L321.83,46.608c-4.264-4.284-9.935-6.1-15.504-5.814
				c-5.589-0.285-11.24,1.53-15.504,5.814L189.985,168.824c-7.997,8.038-7.997,21.053,0,29.09
				C197.982,205.952,216.403,204.035,224.4,204.035z"/>
		</g>
	</g>
</g>
<g>
</g>
<g>
</g>
<g>
</g>
<g>
</g>
<g>
</g>
<g>
</g>
<g>
</g>
<g>
</g>
<g>
</g>
<g>
</g>
<g>
</g>
<g>
</g>
<g>
</g>
<g>
</g>
<g>
</g>
</svg>
