<?xml version="1.0" encoding="iso-8859-1"?>
<!-- Generator: Adobe Illustrator 16.0.0, SVG Export Plug-In . SVG Version: 6.00 Build 0)  -->
<!DOCTYPE svg PUBLIC "-//W3C//DTD SVG 1.1//EN" "http://www.w3.org/Graphics/SVG/1.1/DTD/svg11.dtd">
<svg version="1.1" id="Capa_1" xmlns="http://www.w3.org/2000/svg" xmlns:xlink="http://www.w3.org/1999/xlink" x="0px" y="0px"
	 width="612.02px" height="612.02px" viewBox="0 0 612.02 612.02" style="enable-background:new 0 0 612.02 612.02;"
	 xml:space="preserve">
<g>
	<g id="_x31__16_">
		<g>
			<path d="M306.02,244.808c-33.519,0-60.692,27.398-60.692,61.202c0,33.805,27.173,61.203,60.692,61.203
				c33.518,0,60.692-27.398,60.692-61.203C366.712,272.207,339.538,244.808,306.02,244.808z M591.772,378.146l-47.37-27.582
				c2.651-14.484,4.406-29.273,4.406-44.555c0-15.259-1.734-30.07-4.406-44.555l47.37-27.582
				c19.36-11.261,25.99-36.211,14.811-55.735l-40.454-70.668c-11.18-19.523-35.926-26.194-55.286-14.933l-47.86,27.867
				c-22.358-19.197-47.778-34.885-76.033-44.963V40.801C386.949,18.259,368.834,0,346.495,0h-80.93
				c-22.339,0-40.455,18.279-40.455,40.801v34.62c-28.275,10.098-53.694,25.787-76.074,44.983l-47.86-27.867
				c-19.36-11.261-44.106-4.59-55.266,14.933L5.437,178.139c-11.18,19.503-4.549,44.474,14.811,55.735l47.371,27.582
				c-2.652,14.485-4.407,29.295-4.407,44.555c0,15.26,1.734,30.07,4.407,44.555l-47.371,27.582
				c-19.36,11.262-25.99,36.232-14.811,55.734l40.475,70.668c11.18,19.504,35.926,26.195,55.266,14.934l47.86-27.867
				c22.359,19.197,47.778,34.885,76.034,44.963v34.641c0,22.523,18.116,40.801,40.454,40.801h80.93
				c22.339,0,40.454-18.277,40.454-40.801V536.6c28.256-10.078,53.675-25.766,76.034-44.963l47.859,27.867
				c19.36,11.26,44.106,4.568,55.286-14.934l40.454-70.668C617.763,414.357,611.133,389.408,591.772,378.146z M306.02,408.014
				c-55.877,0-101.167-45.678-101.167-102.004c0-56.346,45.29-102.003,101.167-102.003s101.167,45.677,101.167,102.003
				C407.167,362.336,361.877,408.014,306.02,408.014z"/>
		</g>
	</g>
</g>
<g>
</g>
<g>
</g>
<g>
</g>
<g>
</g>
<g>
</g>
<g>
</g>
<g>
</g>
<g>
</g>
<g>
</g>
<g>
</g>
<g>
</g>
<g>
</g>
<g>
</g>
<g>
</g>
<g>
</g>
</svg>
