<?xml version="1.0" encoding="iso-8859-1"?>
<!-- Generator: Adobe Illustrator 16.0.0, SVG Export Plug-In . SVG Version: 6.00 Build 0)  -->
<!DOCTYPE svg PUBLIC "-//W3C//DTD SVG 1.1//EN" "http://www.w3.org/Graphics/SVG/1.1/DTD/svg11.dtd">
<svg version="1.1" id="Capa_1" xmlns="http://www.w3.org/2000/svg" xmlns:xlink="http://www.w3.org/1999/xlink" x="0px" y="0px"
	 width="612px" height="612px" viewBox="0 0 612 612" style="enable-background:new 0 0 612 612;" xml:space="preserve">
<g>
	<g id="_x31__9_">
		<g>
			<path d="M387.6,407.964h-40.8V224.365c0-22.542-18.258-40.8-40.8-40.8s-40.8,18.258-40.8,40.8v183.599h-40.8
				c-7.997,0-26.418-1.916-34.415,6.121c-7.997,8.037-7.997,21.053,0,29.09l100.816,122.217c4.264,4.283,9.935,6.1,15.505,5.814
				c5.589,0.285,11.24-1.531,15.503-5.814l100.817-122.217c7.997-8.037,7.997-21.053,0-29.09
				C414.65,406.048,401.982,407.964,387.6,407.964z M591.6,40.765H20.4c-9.792,0-20.4,10.608-20.4,20.4v142.8
				c0,22.542,18.258,40.8,40.8,40.8s40.8-18.258,40.8-40.8v-81.6h448.8v81.6c0,22.542,18.258,40.8,40.8,40.8s40.8-18.258,40.8-40.8
				v-142.8C612,50.108,603.922,40.765,591.6,40.765z"/>
		</g>
	</g>
</g>
<g>
</g>
<g>
</g>
<g>
</g>
<g>
</g>
<g>
</g>
<g>
</g>
<g>
</g>
<g>
</g>
<g>
</g>
<g>
</g>
<g>
</g>
<g>
</g>
<g>
</g>
<g>
</g>
<g>
</g>
</svg>
