<?xml version="1.0" encoding="iso-8859-1"?>
<!-- Generator: Adobe Illustrator 16.0.0, SVG Export Plug-In . SVG Version: 6.00 Build 0)  -->
<!DOCTYPE svg PUBLIC "-//W3C//DTD SVG 1.1//EN" "http://www.w3.org/Graphics/SVG/1.1/DTD/svg11.dtd">
<svg version="1.1" id="Capa_1" xmlns="http://www.w3.org/2000/svg" xmlns:xlink="http://www.w3.org/1999/xlink" x="0px" y="0px"
	 width="611.992px" height="611.992px" viewBox="0 0 611.992 611.992" style="enable-background:new 0 0 611.992 611.992;"
	 xml:space="preserve">
<g>
	<g id="_x32__9_">
		<g>
			<path d="M368.986,242.967c-7.753-7.753-20.315-7.753-28.068,0l-98.238,98.238c-7.753,7.753-7.753,20.314,0,28.067
				s20.315,7.753,28.068,0l98.238-98.237C376.739,263.283,376.739,250.72,368.986,242.967z M139.3,551.48
				c-15.506,15.506-43.378-4.122-58.884-19.628c-15.506-15.507-35.134-43.378-19.628-58.885l181.107-187.427
				c-26.439-6.987-62.24-9.951-82.967,10.775L21.532,433.711c-31.012,31.013-27.4,93.724,3.612,124.736l28.068,28.067
				c31.012,31.013,94.352,35.232,125.344,4.221l137.396-137.396c20.728-20.727,17.155-57.156,10.168-83.595L139.3,551.48z
				 M586.522,53.205l-28.067-28.068c-31.013-31.012-93.724-34.604-124.736-3.611L296.323,158.92
				c-20.727,20.728-17.763,56.548-10.775,82.968L472.975,60.781c15.507-15.506,43.378,4.122,58.885,19.628
				c15.506,15.506,35.134,43.378,19.628,58.884L369.752,326.112c26.438,6.987,62.868,10.56,83.595-10.168l137.396-137.396
				C621.755,147.537,617.516,84.197,586.522,53.205z"/>
		</g>
	</g>
</g>
<g>
</g>
<g>
</g>
<g>
</g>
<g>
</g>
<g>
</g>
<g>
</g>
<g>
</g>
<g>
</g>
<g>
</g>
<g>
</g>
<g>
</g>
<g>
</g>
<g>
</g>
<g>
</g>
<g>
</g>
</svg>
